<svg width="60" height="60" xmlns="http://www.w3.org/2000/svg">

 <g>
  <title>background</title>
  <rect fill="none" id="canvas_background" height="62" width="62" y="-1" x="-1"/>
 </g>
 <g>
  <title>GitHub</title>
  <path stroke="null" fill="#a3a991" id="Github" d="m43.685997,12c0.745541,1.810599 1.27807,4.686256 0.532529,6.816372c3.088669,2.662645 4.153727,8.946488 2.662645,14.165273c4.366738,0.319517 9.585523,-0.213012 12.887204,1.171564c-3.088669,-0.426023 -7.455407,-1.171564 -11.502628,-0.958552c-0.745541,0 -1.917105,0 -1.810599,1.065058c4.686256,0.319517 9.372512,0.745541 13.206721,1.917105c-3.834209,-0.639035 -8.413959,-1.597587 -13.206721,-1.704093c-1.917105,3.834209 -5.85782,5.751314 -11.396122,6.177337c0.532529,1.27807 1.704093,1.810599 2.02361,3.834209c0.426023,3.088669 -0.639035,7.561913 0.426023,9.585523c0.532529,0.958552 1.27807,0.958552 1.810599,1.810599c-1.384576,1.597587 -4.686256,-0.213012 -5.005773,-1.810599c-0.639035,-2.875657 0.958552,-7.242395 -0.745541,-9.1595c0.106506,3.088669 -0.745541,7.455407 0.106506,10.224558c0.319517,1.065058 1.27807,1.491081 1.065058,2.449634c-6.177337,0.639035 -3.621198,-7.987936 -4.57975,-13.100215c-0.958552,0.106506 -0.532529,1.384576 -0.532529,1.917105c0,5.005773 1.065058,11.822145 -4.366738,11.183111c-0.106506,-1.065058 0.745541,-1.384576 1.065058,-2.343128c0.958552,-2.769151 -0.213012,-7.029384 0.319517,-10.331064c-2.02361,1.597587 0.213012,6.922878 -1.065058,9.692029c-0.745541,1.597587 -3.088669,2.236622 -4.899268,1.597587c0.213012,-1.171564 1.491081,-0.958552 2.02361,-2.130116c0.745541,-1.491081 0,-3.727704 0.213012,-6.070831c-3.834209,0.745541 -6.709866,-0.106506 -8.200948,-2.449634c-0.639035,-1.065058 -0.852047,-2.343128 -1.597587,-3.30168c-0.745541,-0.958552 -2.02361,-1.065058 -2.343128,-2.343128c4.686256,-1.171564 4.899268,4.792762 9.052994,5.005773c1.27807,0 1.917105,-0.426023 3.195174,-0.639035c0.319517,-1.491081 1.065058,-2.662645 2.130116,-3.408186c-5.218785,-0.745541 -9.585523,-2.343128 -11.609134,-6.283843c-4.792762,0.213012 -9.1595,0.852047 -13.206721,1.810599c3.727704,-1.384576 8.200948,-1.810599 13.100215,-1.917105c-0.319517,-1.704093 -2.769151,-1.27807 -4.366738,-1.171564c-2.875657,0.106506 -6.496855,0.532529 -8.839983,0.958552c3.30168,-1.171564 7.987936,-1.065058 12.567686,-1.065058c-1.384576,-4.366738 -0.852047,-11.183111 2.130116,-13.73925c-0.852047,-2.130116 -0.639035,-5.644808 0.532529,-7.348901c3.408186,0.106506 5.431797,1.597587 7.561913,2.982163c2.662645,-0.745541 5.431797,-1.065058 8.946488,-0.958552c1.491081,0.106506 3.088669,0.745541 4.260233,0.639035c1.065058,-0.106506 2.343128,-1.384576 3.408186,-1.810599c1.171564,-0.639035 2.343128,-0.852047 4.047221,-0.958552z"/>
 </g>
</svg>